HIERARCHY
ROOT Hips
{
	OFFSET 0.00000 0.00000 0.00000
	CHANNELS 6 Xposition Yposition Zposition Zrotation Yrotation Xrotation 
	JOINT LHipJoint
	{
		OFFSET 0 0 0
		CHANNELS 3 Zrotation Yrotation Xrotation
		JOINT LeftHip
		{
			OFFSET 3.13874 -1.57224 1.49786
			CHANNELS 3 Zrotation Yrotation Xrotation
			JOINT LeftKnee
			{
				OFFSET 2.10955 -5.79594 0.00000
				CHANNELS 3 Zrotation Yrotation Xrotation
				JOINT LeftAnkle
				{
					OFFSET 2.41843 -6.64458 0.00000
					CHANNELS 3 Zrotation Yrotation Xrotation
					JOINT LeftToe
					{
						OFFSET 0.04713 -0.12948 1.66229
						CHANNELS 3 Zrotation Yrotation Xrotation
						End Site
						{
							OFFSET 0.00000 -0.00000 0.85167
						}
					}
				}
			}
		}
	}
	JOINT RHipJoint
	{
		OFFSET 0 0 0
		CHANNELS 3 Zrotation Yrotation Xrotation
		JOINT RightHip
		{
			OFFSET -3.13988 -1.57224 1.49786
			CHANNELS 3 Zrotation Yrotation Xrotation
			JOINT RightKnee
			{
				OFFSET -2.15006 -5.90725 0.00000
				CHANNELS 3 Zrotation Yrotation Xrotation
				JOINT RightAnkle
				{
					OFFSET -2.34496 -6.44273 0.00000
					CHANNELS 3 Zrotation Yrotation Xrotation
					JOINT RightToe
					{
						OFFSET -0.08699 -0.23900 1.55223
						CHANNELS 3 Zrotation Yrotation Xrotation
						End Site
						{
							OFFSET -0.00000 -0.00000 0.80281
						}
					}
				}
			}
		}
	}
	JOINT lowerback
	{
		OFFSET 0 0 0
		CHANNELS 3 Zrotation Yrotation Xrotation
		JOINT Chest
		{
			OFFSET 0.01292 1.96517 -0.16495
			CHANNELS 3 Zrotation Yrotation Xrotation
			JOINT Chest2
			{
				OFFSET 0.02122 1.88666 0.19706
				CHANNELS 3 Zrotation Yrotation Xrotation
				JOINT lowerneck
				{
					OFFSET 0 0 0
					CHANNELS 3 Zrotation Yrotation Xrotation
					JOINT Neck
					{
						OFFSET -0.01683 1.81591 0.07903
						CHANNELS 3 Zrotation Yrotation Xrotation
						JOINT Head
						{
							OFFSET 0.00815 1.74013 -0.47700
							CHANNELS 3 Zrotation Yrotation Xrotation
							End Site
							{
								OFFSET -0.00204 1.83225 -0.16933
							}
						}
					}
				}
				JOINT LeftCollar
				{
					OFFSET 0 0 0
					CHANNELS 3 Zrotation Yrotation Xrotation
					JOINT LeftShoulder
					{
						OFFSET 3.38482 1.41533 0.19802
CHANNELS 3 Zrotation Xrotation Yrotation
						JOINT LeftElbow
						{
OFFSET 0 -4.327120 0.000000
CHANNELS 3 Zrotation Xrotation Yrotation
							JOINT LeftWrist
							{
OFFSET 0 -3.285870 -0.000000
CHANNELS 3 Zrotation Xrotation Yrotation
								JOINT lhand
								{
									OFFSET 0 0 0
CHANNELS 3 Zrotation Xrotation Yrotation
									JOINT LFingers
									{
OFFSET 0 -0.433160 -0.000000
CHANNELS 3 Zrotation Xrotation Yrotation
										End Site
										{
OFFSET 0 -0.349220 -0.000000
										}
									}
								}
								JOINT LThumb
								{
OFFSET 0 0.000000 0.000000
CHANNELS 3 Zrotation Xrotation Yrotation
									End Site
									{
OFFSET 0 -0.354560 0.354560
									}
								}
							}
						}
					}
				}
				JOINT RightCollar
				{
					OFFSET 0 0 0
					CHANNELS 3 Zrotation Yrotation Xrotation
					JOINT RightShoulder
					{
						OFFSET -3.09725 1.62858 -0.14144
CHANNELS 3 Zrotation Xrotation Yrotation
						JOINT RightElbow
						{
OFFSET 0 -4.291040 0.000000
CHANNELS 3 Zrotation Xrotation Yrotation
							JOINT RightWrist
							{
OFFSET 0 -3.227200 -0.000000
CHANNELS 3 Zrotation Xrotation Yrotation
								JOINT rhand
								{
									OFFSET 0 0 0
CHANNELS 3 Zrotation Xrotation Yrotation
									JOINT RFingers
									{
OFFSET 0 -0.543620 -0.000000
CHANNELS 3 Zrotation Xrotation Yrotation
										End Site
										{
OFFSET 0 -0.438280 -0.000000
										}
									}
								}
								JOINT RThumb
								{
OFFSET 0 0.000000 0.000000
CHANNELS 3 Zrotation Xrotation Yrotation
									End Site
									{
OFFSET 0 -0.444970 0.444970
									}
								}
							}
						}
					}
				}
			}
		}
	}
}
MOTION
Frames: 6
Frame Time: 0.008333333333333333
1.945900 16.055000 4.785800 -176.936000 -26.983300 -169.858000 0.000000 0.000000 0.000000 -27.054400 -19.104300 -8.414400 0.627600 5.069200 14.106100 1.551800 -13.711600 -22.900400 0.049300 -1.433300 -3.941800 0.000000 0.000000 0.000000 19.314900 9.905000 1.017400 -0.564300 -4.811200 13.371000 1.729600 -30.536400 -33.874000 -3.525400 -11.500500 33.987100 -0.194700 1.516000 7.358700 1.836600 1.737100 -9.670600 1.867100 0.748900 -14.903100 -3.696700 -1.549900 -16.294300 -0.424100 -2.533100 31.177400 -0.065800 -2.183200 13.226900 -0.000000 0.000000 0.000000 3.902800 13.484200 -16.875700 21.285100 -32.159600 6.201000 31.662700 22.457100 -27.907100 0.000000 0.000000 0.000000 -7.125000 0.000000 0.000000 1.553200 61.865100 -0.637400 -0.000000 0.000000 0.000000 -20.718200 17.962000 46.069100 -23.200700 -34.307600 -7.251100 -31.275000 3.005200 19.259000 0.000000 0.000000 0.000000 7.125000 0.000000 -0.000000 -3.099000 52.188200 0.548800
1.915266 16.053530 4.777590 -176.737489 -26.927852 -169.929684 0.000000 0.000000 0.000000 -26.957289 -18.850770 -8.383030 0.620064 5.039301 14.020630 1.546102 -13.622883 -22.845197 0.054875 -1.510437 -4.154403 0.000000 0.000000 0.000000 19.454286 9.942068 0.822627 -0.598243 -4.950096 13.766551 1.628568 -30.125041 -33.722360 -3.687027 -11.729645 34.785126 -0.184836 1.493331 7.337195 1.869624 1.719087 -9.584640 1.900185 0.744672 -14.785158 -3.461060 -1.523677 -16.597029 -0.495601 -2.511717 31.210730 -0.134421 -2.147542 13.300484 0.000000 0.000000 0.000000 3.723650 13.498721 -16.414591 21.302194 -32.179329 6.210068 31.906427 22.347858 -28.152175 0.000000 0.000000 0.000000 -7.125000 0.000000 0.000000 1.773032 62.197116 -0.742598 0.000000 0.000000 0.000000 -20.658769 17.895585 45.923280 -23.024062 -34.114787 -7.151967 -30.827493 2.500284 18.647905 0.000000 0.000000 0.000000 7.125000 0.000000 0.000000 -2.721339 51.415601 0.434840
1.884992 16.052284 4.768749 -176.586983 -26.858768 -169.972070 0.000000 0.000000 0.000000 -26.914877 -18.676076 -8.312536 0.610567 5.001198 13.911879 1.558502 -13.494049 -22.903155 0.068091 -1.670603 -4.596370 0.000000 0.000000 0.000000 19.536292 9.993514 0.612528 -0.632907 -5.089286 14.163545 1.504187 -29.669780 -33.645972 -3.869749 -11.982320 35.673325 -0.218311 1.468655 7.301581 1.892483 1.689129 -9.514141 1.949114 0.738124 -14.677763 -3.231077 -1.485216 -16.831266 -0.557252 -2.480170 31.223371 -0.195402 -2.107962 13.350651 0.000000 0.000000 0.000000 3.572221 13.520070 -15.996754 21.254470 -32.123894 6.184766 32.013261 22.219752 -28.328939 0.000000 0.000000 0.000000 -7.125000 0.000000 0.000000 1.844658 62.417953 -0.780996 0.000000 0.000000 0.000000 -20.587935 17.839987 45.794634 -22.847807 -33.921726 -7.053330 -30.269552 1.719891 17.661537 0.000000 0.000000 0.000000 7.125000 0.000000 0.000000 -2.284743 50.206494 0.305397
1.855338 16.051427 4.758823 -176.518975 -26.766252 -169.964105 0.000000 0.000000 0.000000 -26.966465 -18.636864 -8.174803 0.597701 4.948997 13.763118 1.602003 -13.296273 -23.155582 0.094437 -1.973455 -5.432505 0.000000 0.000000 0.000000 19.519688 10.069671 0.376091 -0.668811 -5.228978 14.563017 1.339680 -29.139069 -33.698909 -4.088724 -12.275430 36.716487 -0.326267 1.440533 7.241721 1.897875 1.638644 -9.470211 2.025271 0.727585 -14.588494 -3.010816 -1.425724 -16.947800 -0.601979 -2.431155 31.200456 -0.243253 -2.061642 13.360577 0.000000 0.000000 0.000000 3.468432 13.553155 -15.653282 21.095355 -31.939291 6.100399 31.884842 22.059227 -28.388308 0.000000 0.000000 0.000000 -7.125000 0.000000 0.000000 1.661587 62.447730 -0.704593 0.000000 0.000000 0.000000 -20.497502 17.802981 45.695501 -22.672211 -33.728240 -6.955545 -29.521827 0.466087 16.030256 0.000000 0.000000 0.000000 7.125000 0.000000 0.000000 -1.746864 48.247241 0.149345
1.828568 16.050749 4.749078 -176.430683 -26.655887 -169.942167 0.000000 0.000000 0.000000 -26.965631 -18.623705 -8.077098 0.586186 4.901935 13.629142 1.627068 -13.240078 -23.310918 0.103564 -2.074911 -5.712774 0.000000 0.000000 0.000000 19.546898 10.210872 0.074116 -0.711430 -5.388594 15.020817 1.238955 -28.774641 -33.671972 -4.306436 -12.554025 37.726339 -0.453244 1.406821 7.174064 1.930672 1.577070 -9.456617 2.145647 0.714072 -14.532130 -2.772480 -1.352664 -16.969360 -0.711703 -2.352120 31.131475 -0.312830 -2.010004 13.329304 0.000000 0.000000 0.000000 3.358603 13.631541 -15.303769 20.900631 -31.711642 5.997866 31.437967 21.798050 -28.576187 0.000000 0.000000 0.000000 -7.125000 0.000000 0.000000 1.028666 62.530244 -0.436983 0.000000 0.000000 0.000000 -20.487348 17.827502 45.688186 -22.534478 -33.575636 -6.879216 -29.974589 0.878575 16.652010 0.000000 0.000000 0.000000 7.125000 0.000000 0.000000 -2.122253 49.023372 0.230749
1.802696 16.049813 4.739467 -176.330346 -26.534833 -169.915209 0.000000 0.000000 0.000000 -26.941992 -18.617775 -7.996608 0.575374 4.857524 13.502762 1.642889 -13.259984 -23.418678 0.103510 -2.071101 -5.702428 0.000000 0.000000 0.000000 19.591560 10.378453 -0.261207 -0.758112 -5.560069 15.513407 1.135336 -28.404299 -33.666939 -4.542347 -12.846774 38.801397 -0.592143 1.363781 7.098510 1.979431 1.501736 -9.449201 2.293341 0.695817 -14.478453 -2.518083 -1.264295 -16.970724 -0.837648 -2.251528 31.049401 -0.387535 -1.949471 13.287645 0.000000 0.000000 0.000000 3.237823 13.729703 -14.919916 20.700130 -31.476590 5.892570 30.831451 21.486947 -28.838090 0.000000 0.000000 0.000000 -7.125000 0.000000 0.000000 0.164463 62.648910 -0.069086 0.000000 0.000000 0.000000 -20.516039 17.852787 45.735440 -22.410918 -33.438265 -6.810944 -30.779363 1.798443 17.946051 0.000000 0.000000 0.000000 7.125000 0.000000 0.000000 -2.763989 50.614805 0.382788
